<?xml version="1.0" encoding="utf-8"?>
<!-- Generator: Adobe Illustrator 18.1.1, SVG Export Plug-In . SVG Version: 6.00 Build 0)  -->
<svg version="1.1" id="Layer_1" xmlns="http://www.w3.org/2000/svg" xmlns:xlink="http://www.w3.org/1999/xlink" x="0px" y="0px"
	 viewBox="0 0 14 14" enable-background="new 0 0 14 14" xml:space="preserve">
<g>
	<g>
		<path fill="#ffffff" d="M1.3,4.4v2.5h5.1v-3H1.9C1.6,3.9,1.3,4.1,1.3,4.4z M2,13c0,0.3,0.2,0.5,0.5,0.5h3.9V7.7H2V13z M12.1,3.9
			H7.7v3h5V4.4C12.7,4.1,12.4,3.9,12.1,3.9z M7.7,13.6h3.8c0.3,0,0.5-0.2,0.5-0.5V7.7H7.7V13.6z M4,3h6.3c1.1,0,1.7-0.6,1.7-1.3
			c0-0.8-0.7-1.2-1.5-1.2c-0.5,0-1,0.2-1.5,0.5C8.5,1.3,7.6,1.9,7.1,2.2C6.7,1.9,5.8,1.3,5.3,1c-0.5-0.3-1-0.5-1.5-0.5
			C3,0.5,2.3,0.9,2.3,1.7C2.3,2.4,2.9,3,4,3z M9.8,1.3c0.2-0.1,0.5-0.2,0.7-0.2c0.4,0,0.6,0.2,0.6,0.6c0,0.4-0.4,0.7-0.9,0.7
			c-0.1,0-1,0-1.9,0C9,1.9,9.5,1.5,9.8,1.3z M3.8,1.1c0.2,0,0.5,0.1,0.7,0.2c0.3,0.2,0.9,0.6,1.5,1c-0.9,0-1.8,0-1.9,0
			c-0.4,0-0.9-0.3-0.9-0.7C3.1,1.3,3.4,1.1,3.8,1.1z"/>
	</g>
</g>
</svg>
