<svg version="1.1" id="Layer_1" xmlns="http://www.w3.org/2000/svg" xmlns:xlink="http://www.w3.org/1999/xlink" x="0" y="0" height="50" width="83" viewBox="0 0 83 50" enable-background="new 0 0 83 50" xml:space="preserve">

  <style>
      .logocolor {
        fill: #fff;
      }
      .logocolor:hover {
        fill: #fff;
      }
  </style>

<path class="logocolor" d="M45.4,2.9c3.2,0,4.3,2.1,2.5,5.6l-6.2,12.2L35.6,8.4c-1.8-3.5-0.7-5.6,2.5-5.6H45.4L45.4,2.9z M51.6,40.1 l-7-13.8l9.2-18.2c2.7-5.2,3.3-5.5,7.9-5.5V0h-40v2.6c4.5,0,5.3,0.3,7.9,5.5l9.2,18.2l-7,13.8L15.6,7.8c-1.9-3.8-1.4-5.1,1.2-5.1 h1.7V0H0v2.6l1,0.1c6,0.4,6.4,0.7,9.1,6.2L30.9,50h1.7l9.1-17.9L50.8,50h1.7L73.4,8.8c2.7-5.5,3.2-5.9,9.1-6.2l0.4,0V0H65v2.6h1.7 c2.7,0,3.1,1.3,1.2,5.1L51.6,40.1L51.6,40.1z"/>

</svg>