<svg xmlns="http://www.w3.org/2000/svg" xmlns:xlink="http://www.w3.org/1999/xlink" version="1.1" x="0" y="0" width="600" height="40" viewBox="0 0 300 20" enable-background="new 0 0 300 20" xml:space="preserve">

  <style>
      .color {
        fill: #fff;
      }
      .color:hover {
        fill: #fff;
      }
  </style>
<g class="color">
  <path d="M107.9 8.2l-1.9-1c-1.4-0.7-2.6-1.9-2.6-3.2 0-1.4 1-2.6 2.9-2.6 2 0 3.3 2.1 3.7 3.5 0.3 0.3 1 0.3 1.1-0.1 0-1.9-0.3-3.4-0.5-4.1 -0.3-0.1-0.6-0.1-1-0.2 -1.1-0.3-2.3-0.5-3.2-0.5 -4.1 0-6.6 2.2-6.6 5.4 0 2.8 2.2 4.5 4.3 5.5 1.7 0.9 3.9 2.2 3.9 4.5 0 1.4-1 2.9-3.1 2.9 -2.4 0-4.3-2.6-4.9-4.5 -0.2-0.3-0.9-0.3-1.1 0.1 0 1.9 0.4 4 0.9 4.6 0.6 0.3 2.2 1.1 4.8 1.1 4.3 0 7.2-2.3 7.2-5.8C111.9 10.8 109.7 9.1 107.9 8.2z"/>
  <path d="M146 14.6c-1.6 3.2-2.5 3.3-5 3.3 -2.1 0-2.6-0.2-3-0.7 -0.3-0.5-0.5-1.4-0.5-2.7v-3.4c0-0.9 0-0.9 0.8-0.9h2c1.5 0 1.8 0.2 2.1 1.6l0.1 0.7c0.2 0.3 0.9 0.2 1.1 0 -0.1-0.9-0.1-1.9-0.1-3 0-1.1 0-2.1 0.1-3 -0.1-0.3-0.9-0.3-1.1 0l-0.1 0.7c-0.3 1.4-0.6 1.6-2.1 1.6h-2c-0.8 0-0.8-0.1-0.8-0.9v-5c0-1.1 0-1.1 0.9-1.1h2.3c1.4 0 2.2 0.3 2.8 0.9 0.4 0.4 0.8 1.2 1.1 2.2 0.3 0.3 0.9 0.2 1.1-0.1 -0.1-1.9-0.3-3.9-0.4-4.4 -0.4 0.1-2 0.1-3.8 0.1h-6c-1.4 0-2.8 0-4.1-0.1 -0.3 0.2-0.3 0.8-0.1 1l0.7 0.1c1.3 0.3 1.4 0.4 1.4 3v10.6c0 2.6-0.2 2.8-1.4 3l-1.3 0.2c-0.2 0.1-0.2 0.8 0 1 2.1-0.1 3.5-0.1 4.9-0.1h3.7c2.3 0 5.1 0 6.6 0.1 0.4-0.8 1.1-3.1 1.2-4.5C146.9 14.4 146.2 14.3 146 14.6z"/>
  <path d="M165.2 0.4c-0.8 0.1-1.7 0.1-2.8 0.1 -1 0-2 0-3.2-0.1 -0.3 0.1-0.3 0.9 0 1l0.7 0.1c0.7 0.1 1 0.2 1 0.4 0 0.3-0.4 1.3-1.5 3.3 -0.8 1.4-1.6 3.1-2.4 4.5l-1.3-2.8 -1.3-3c-0.6-1.3-0.7-1.8-0.7-2 0 0 0.2-0.1 0.7-0.3l1-0.2c0.3-0.2 0.2-0.9-0.1-1 -1 0.1-2.4 0.1-4.1 0.1 -1.7 0-2.7 0-4-0.1 -0.3 0.1-0.4 0.8-0.1 1l1 0.2c1 0.2 1.2 0.6 1.8 1.8l3.4 7c0.7 1.5 0.8 2 0.8 3.4v1.4c0 2.6-0.2 2.8-1.4 3l-1 0.1c-0.2 0.2-0.2 0.8 0 1 1.7-0.1 3.1-0.1 4.5-0.1 1.4 0 2.8 0 4.6 0.1 0.2-0.2 0.2-0.8 0-1l-1.1-0.1c-1.3-0.2-1.4-0.4-1.4-3v-2c0-1.6 0.3-2.3 1-3.7l1.8-3.2c1.4-2.5 2.1-3.5 2.5-4 0.3-0.4 0.9-0.6 1.4-0.7l0.7-0.1C165.6 1.2 165.6 0.5 165.2 0.4z"/>
  <path d="M129 14.5c-1.7 3.3-2.5 3.4-5.1 3.4 -2.1 0-2.6-0.2-3-0.7 -0.4-0.5-0.5-1.4-0.5-2.7V4.5c0-2.6 0.2-2.9 1.4-3.1l0.7-0.1c0.2-0.2 0.2-0.8 0-1 -1.4 0.1-2.8 0.1-4.2 0.1 -1.4 0-2.8 0-4.3-0.1 -0.3 0.2-0.3 0.8-0.1 1l0.8 0.1c1.3 0.2 1.4 0.4 1.4 3.1v10.6c0 2.6-0.2 2.9-1.4 3l-1.1 0.1c-0.2 0.2-0.2 0.8 0.1 1 1.8-0.1 3.2-0.1 4.5-0.1h3.8c2.3 0 5.1 0 6.6 0.1 0.4-0.8 1.1-3.1 1.2-4.6C129.9 14.3 129.2 14.2 129 14.5z"/>
  <path d="M62 14.5c-1.7 3.3-2.5 3.4-5.1 3.4 -2.1 0-2.6-0.2-3-0.7 -0.4-0.5-0.5-1.4-0.5-2.7V4.5c0-2.6 0.2-2.9 1.4-3.1l0.7-0.1c0.2-0.2 0.2-0.8 0-1 -1.4 0.1-2.8 0.1-4.2 0.1 -1.4 0-2.8 0-4.3-0.1 -0.3 0.2-0.3 0.8-0.1 1L48 1.5c1.3 0.2 1.4 0.4 1.4 3.1v10.6c0 2.6-0.2 2.9-1.4 3l-1.1 0.1c-0.2 0.2-0.2 0.8 0.1 1 1.8-0.1 3.2-0.1 4.5-0.1h3.8c2.3 0 5.1 0 6.6 0.1 0.4-0.8 1.1-3.1 1.2-4.6C62.9 14.3 62.2 14.2 62 14.5z"/>
  <path d="M95.9 14.6c-1.6 3.2-2.5 3.3-5 3.3 -2.1 0-2.6-0.2-3-0.7 -0.3-0.5-0.5-1.4-0.5-2.7v-3.4c0-0.9 0-0.9 0.8-0.9h2c1.5 0 1.8 0.2 2.1 1.6l0.1 0.7c0.2 0.3 0.9 0.2 1 0 -0.1-0.9-0.1-1.9-0.1-3 0-1.1 0-2.1 0.1-3 -0.1-0.3-0.9-0.3-1 0l-0.1 0.7c-0.3 1.4-0.6 1.6-2.1 1.6h-2c-0.8 0-0.8-0.1-0.8-0.9v-5c0-1.1 0-1.1 0.9-1.1h2.3c1.4 0 2.2 0.3 2.8 0.9 0.4 0.4 0.8 1.2 1.1 2.2 0.3 0.3 0.9 0.2 1.1-0.1 -0.1-1.9-0.3-3.9-0.4-4.4 -0.4 0.1-2 0.1-3.8 0.1h-6c-1.4 0-2.8 0-4.1-0.1 -0.3 0.2-0.3 0.8-0.1 1L82 1.5c1.3 0.3 1.4 0.4 1.4 3v10.6c0 2.6-0.2 2.8-1.4 3l-1.3 0.2c-0.2 0.1-0.2 0.8 0 1 2.1-0.1 3.5-0.1 4.9-0.1h3.7c2.3 0 5.1 0 6.6 0.1 0.4-0.8 1.1-3.1 1.2-4.5C96.8 14.4 96.1 14.3 95.9 14.6z"/>
  <path d="M44.5 14.6c-1.6 3.2-2.5 3.3-5 3.3 -2.1 0-2.6-0.2-3-0.7 -0.3-0.5-0.5-1.4-0.5-2.7v-3.4c0-0.9 0-0.9 0.8-0.9h2c1.5 0 1.8 0.2 2.1 1.6l0.1 0.7c0.2 0.3 0.9 0.2 1.1 0 -0.1-0.9-0.1-1.9-0.1-3 0-1.1 0-2.1 0.1-3 -0.1-0.3-0.9-0.3-1.1 0L41 7.1c-0.3 1.4-0.6 1.6-2.1 1.6h-2c-0.8 0-0.8-0.1-0.8-0.9v-5c0-1.1 0-1.1 0.9-1.1h2.3c1.4 0 2.2 0.3 2.8 0.9 0.4 0.4 0.8 1.2 1.1 2.2 0.3 0.3 0.9 0.2 1.1-0.1 -0.1-1.9-0.3-3.9-0.4-4.4 -0.4 0.1-2 0.1-3.8 0.1h-6c-1.9 0-2.8-0.1-4.3-0.1 -1.1 0-1.3 0.1-2.8 0.1 -0.9 0-2 0-2.9-0.1 -0.3 0.1-0.3 0.7-0.1 1l0.6 0.2c0.4 0.1 0.5 0.2 0.5 0.4 0 0.3-0.6 1.9-0.8 2.4 -1.4 3.5-2.7 7-4.1 10.3 -0.2-0.4-0.5-1.2-1.2-2.8L17.8 9c-0.2-0.5-0.2-0.6-0.2-0.7 0-0.1 0.4-1 0.6-1.5 0.4-0.7 1.1-2 1.8-3.2 1-1.7 1.2-1.8 2.2-2l0.8-0.2c0.3-0.2 0.2-0.9 0-1 -0.7 0.1-1.8 0.1-2.9 0.1 -0.9 0-2 0-2.8-0.1 -0.3 0.1-0.3 0.8-0.1 1l0.9 0.2c0.5 0.1 0.6 0.2 0.6 0.4 0 0.2-0.3 1-0.8 2.1l-0.3 0.6 -0.9 1.8c-0.3-0.5-0.5-1.1-0.8-1.7l-0.9-2c-0.1-0.3-0.3-0.6-0.3-0.9 0-0.2 0.4-0.3 0.8-0.4L16 1.4c0.2-0.1 0.2-0.9-0.1-1 -0.7 0.1-1.8 0.1-3.3 0.1 -1.2 0-2.4 0-3.6-0.1 -0.3 0.1-0.4 0.8-0.1 1l0.3 0c1.1 0.1 1.3 0.3 1.9 1.7l2.7 6C14 9.4 14 9.7 14 9.9c0 0.2-0.2 0.8-0.4 1.2L13.3 12c-0.6 1.3-1 2.1-1.4 2.8 -0.3-0.7-0.6-1.3-1.4-3L7.7 5.4c-0.9-2-1.5-3.3-1.5-3.5 0-0.2 0.2-0.3 0.7-0.4l0.5-0.1c0.3-0.2 0.2-0.9-0.1-1C6.3 0.4 5.2 0.5 4 0.5c-1.4 0-2.6 0-3.7-0.1C0 0.5-0.1 1.1 0.1 1.4l0.7 0.1c0.9 0.2 1.1 0.3 1.9 2l4.7 10.2c1 2.1 2.1 4.7 2.6 5.9 0.3 0.1 0.4 0.2 0.7 0.2 0.4 0 0.8-0.1 0.9-0.2 0.5-0.9 0.8-1.8 1.2-2.7l1.3-2.9c0.4-0.8 0.7-1.5 1-2 0.3 0.4 0.6 1.3 1 2.2l1.2 2.7c0.3 0.8 0.8 1.8 1.1 2.5 0.2 0.1 0.5 0.2 0.8 0.2 0.4 0 0.8-0.1 0.9-0.2 1.4-3.7 4.6-10.8 6-14.1 0.8-1.8 1.2-2.7 1.6-3.2 0.2-0.3 0.5-0.5 1.2-0.6 0.7-0.2 1.1-0.2 1.8-0.1 1.3 0.3 1.4 0.4 1.4 3v10.6c0 2.6-0.2 2.8-1.4 3l-1.3 0.2c-0.2 0.1-0.2 0.8 0 1 2.1-0.1 3.5-0.1 4.9-0.1h3.7c2.3 0 5.1 0 6.6 0.1 0.4-0.8 1.1-3.1 1.2-4.5C45.5 14.4 44.8 14.3 44.5 14.6z"/>
  <path d="M78.9 14.5c-1.7 3.3-2.5 3.4-5.1 3.4 -2.1 0-2.6-0.2-3-0.7 -0.4-0.5-0.5-1.4-0.5-2.7V4.5c0-2.6 0.2-2.9 1.4-3.1l0.7-0.1c0.2-0.2 0.2-0.8 0-1 -1.4 0.1-2.8 0.1-4.2 0.1 -1.4 0-2.8 0-4.3-0.1 -0.3 0.2-0.3 0.8-0.1 1l0.8 0.1c1.3 0.2 1.4 0.4 1.4 3.1v10.6c0 2.6-0.2 2.9-1.4 3l-1.1 0.1c-0.2 0.2-0.2 0.8 0.1 1 1.8-0.1 3.2-0.1 4.5-0.1h3.8c2.3 0 5.1 0 6.6 0.1 0.4-0.8 1.1-3.1 1.2-4.6C79.8 14.3 79.1 14.2 78.9 14.5z"/>
  <path d="M298.9 14.7c-1.6 3.2-2.5 3.3-5 3.3 -2.1 0-2.6-0.2-3-0.7 -0.3-0.5-0.5-1.4-0.5-2.7v-3.4c0-0.9 0-0.9 0.8-0.9h2c1.5 0 1.8 0.2 2.1 1.6l0.1 0.7c0.2 0.3 0.9 0.2 1.1 0 -0.1-0.9-0.1-1.9-0.1-3 0-1.1 0-2.1 0.1-3 -0.1-0.3-0.9-0.3-1.1 0l-0.1 0.7c-0.3 1.4-0.6 1.6-2.1 1.6h-2c-0.8 0-0.8-0.1-0.8-0.9v-5c0-1.1 0-1.1 0.9-1.1h2.3c1.4 0 2.3 0.3 2.8 0.9 0.4 0.4 0.8 1.3 1.1 2.3 0.3 0.3 0.9 0.2 1.1-0.1 -0.1-1.9-0.3-4-0.4-4.4 -0.4 0.1-2 0.1-3.8 0.1h-6.1c-1.4 0-2.8 0-4.1-0.1 -0.3 0.2-0.3 0.8-0.1 1l0.7 0.1c1.3 0.3 1.5 0.4 1.5 3v10.6c0 2.6-0.2 2.8-1.5 3l-1.3 0.2c-0.2 0.1-0.2 0.8 0 1 2.1-0.1 3.5-0.1 4.9-0.1h3.7c2.3 0 5.1 0 6.6 0.1 0.4-0.8 1.1-3.1 1.2-4.6C299.9 14.5 299.2 14.4 298.9 14.7z"/>
  <path d="M261.1 14.7c-1.6 3.2-2.5 3.3-5 3.3 -2.1 0-2.6-0.2-3-0.7 -0.3-0.5-0.5-1.4-0.5-2.7v-3.4c0-0.9 0-0.9 0.8-0.9h2c1.5 0 1.8 0.2 2.1 1.6l0.1 0.7c0.2 0.3 0.9 0.2 1.1 0 -0.1-0.9-0.1-1.9-0.1-3 0-1.1 0-2.1 0.1-3 -0.1-0.3-0.9-0.3-1.1 0l-0.1 0.7c-0.3 1.4-0.6 1.6-2.1 1.6h-2c-0.8 0-0.8-0.1-0.8-0.9v-5c0-1.1 0-1.1 0.9-1.1h2.3c1.4 0 2.3 0.3 2.8 0.9 0.4 0.4 0.8 1.3 1.1 2.3 0.3 0.3 0.9 0.2 1.1-0.1 -0.1-1.9-0.3-4-0.4-4.4 -0.4 0.1-2 0.1-3.8 0.1h-6.1c-1.4 0-2.8 0-4.1-0.1 -0.3 0.2-0.3 0.8-0.1 1l0.7 0.1c1.3 0.3 1.5 0.4 1.5 3v10.6c0 2.6-0.2 2.8-1.5 3l-1.3 0.2c-0.2 0.1-0.2 0.8 0 1 2.1-0.1 3.5-0.1 4.9-0.1h3.7c2.3 0 5.1 0 6.6 0.1 0.4-0.8 1.1-3.1 1.2-4.6C262 14.5 261.3 14.4 261.1 14.7z"/>
  <path d="M278.9 11.5c-1.4 0-2.8 0-4.8-0.1 -0.3 0.2-0.3 0.8 0 1l1.3 0.2c1.4 0.2 1.5 0.4 1.5 1.9v1.8c0 1.9-0.3 2.2-2 2.2 -1.1 0-2.5-0.2-3.9-1.1 -1.9-1.3-3.3-3.7-3.3-7.8 0-4.5 2.2-8.3 6.7-8.3 2.7 0 4.5 1.3 5.4 4 0.2 0.3 1 0.3 1.1-0.1 -0.3-1.7-0.3-3.7-0.4-4.6 -0.9 0-2.5-0.7-5.7-0.7 -2.4 0-4.7 0.5-6.7 1.5 -3.4 1.9-5 5.1-5 8.6 0 4.1 2.3 7.3 5.6 8.6 2 0.8 3.7 1 5.6 1 1.6 0 4.1-0.4 5.1-0.7 0.8-0.3 1.5-0.3 2-0.4 0.2-0.1 0.2-0.6 0.1-0.7 -0.5-0.1-0.6-0.7-0.6-1.9v-1.6c0-1.5 0.2-1.8 1-2l0.7-0.1c0.2-0.2 0.2-0.8 0-1C281.7 11.5 280.3 11.5 278.9 11.5z"/>
  <path d="M243.9 14.6c-1.7 3.3-2.5 3.4-5.1 3.4 -2.1 0-2.6-0.2-3-0.7 -0.4-0.5-0.5-1.4-0.5-2.7v-10c0-2.7 0.2-2.9 1.5-3.1l0.7-0.1c0.2-0.2 0.2-0.8 0-1 -1.4 0.1-2.9 0.1-4.2 0.1 -1.4 0-2.8 0-4.3-0.1 -0.3 0.2-0.3 0.8-0.1 1l0.8 0.1c1.3 0.2 1.5 0.4 1.5 3.1v10.6c0 2.7-0.2 2.9-1.5 3.1l-1.1 0.1c-0.2 0.2-0.2 0.8 0.1 1 1.8-0.1 3.2-0.1 4.5-0.1h3.8c2.3 0 5.1 0 6.6 0.1 0.4-0.8 1.1-3.1 1.2-4.6C244.8 14.5 244.1 14.4 243.9 14.6z"/>
  <path d="M200.4 0.1c-6 0-10.2 4.4-10.2 10 0 6 4.2 9.7 9.9 9.7 6.1 0 10.3-3.7 10.3-10C210.4 4 206.4 0.1 200.4 0.1zM200.7 18.5c-4.7 0-5.9-5.6-5.9-9.1 0-4.8 1.9-8 5.4-8 3.5 0 5.7 4 5.7 8.8C205.9 14.8 204.4 18.5 200.7 18.5z"/>
  <path d="M226.8 14.6c-1.7 3.3-2.5 3.4-5.1 3.4 -2.1 0-2.6-0.2-3-0.7 -0.4-0.5-0.5-1.4-0.5-2.7v-10c0-2.7 0.2-2.9 1.5-3.1l0.7-0.1c0.2-0.2 0.2-0.8 0-1 -1.4 0.1-2.9 0.1-4.2 0.1 -1.4 0-2.8 0-4.3-0.1 -0.3 0.2-0.3 0.8-0.1 1l0.8 0.1c1.3 0.2 1.5 0.4 1.5 3.1v10.6c0 2.7-0.2 2.9-1.5 3.1l-1.1 0.1c-0.2 0.2-0.2 0.8 0.1 1 1.8-0.1 3.2-0.1 4.5-0.1h3.8c2.3 0 5.1 0 6.6 0.1 0.4-0.8 1.1-3.1 1.2-4.6C227.7 14.5 227 14.4 226.8 14.6z"/>
  <path d="M187.8 14.1c-0.8 1.9-2.4 4.4-5.8 4.4 -3.4 0-6.7-3.1-6.7-8.7 0-5.7 3.4-8.4 6.6-8.4 2.8 0 4.6 1.4 5.4 4.1 0.2 0.3 1 0.1 1.1-0.2 -0.3-1.7-0.3-3.9-0.3-4.5 -0.9-0.1-3-0.7-5.9-0.7 -3 0-5.9 0.9-7.9 2.5 -2 1.6-3.5 4.1-3.5 7.6 0 3.5 1.6 5.9 3.6 7.5 2 1.5 4.9 2.2 7.7 2.2 2.2 0 4.3-0.6 5.8-1.1 0.4-0.7 0.9-2.4 1.1-4.5C188.7 13.9 188 13.8 187.8 14.1z"/>
</g>
</svg>
